PathFileType	4	(X/Y/Z)	C:/Users/opensim2020/Desktop/walking_exp_matlab/subject06_walking21_straight_03.trc	
DataRate	CameraRate	NumFrames	NumMarkers	Units	OrigDataRate	OrigDataStartFrame	OrigNumFrames	
100.00	100.00	4	44	mm	100.00	1821	110	
Frame#	Time	LFHD			RFHD			LBHD			RBHD			C7			T10			CLAV			STRN			RBAK			LSHO			LUPA			LELB			LFRM			LWRA			LWRB			LFIN			RSHO			RUPA			RELB			RFRM			RWRA			RWRB			RFIN			LASI			RASI			LPSI			RPSI			LTHI			LKNE			LTIB			LANK			LHEE			LTOE			RTHI			RKNE			RTIB			RANK			RHEE			RTOE			*39			*40			*41			*42			*43			
		X1	Y1	Z1	X2	Y2	Z2	X3	Y3	Z3	X4	Y4	Z4	X5	Y5	Z5	X6	Y6	Z6	X7	Y7	Z7	X8	Y8	Z8	X9	Y9	Z9	X10	Y10	Z10	X11	Y11	Z11	X12	Y12	Z12	X13	Y13	Z13	X14	Y14	Z14	X15	Y15	Z15	X16	Y16	Z16	X17	Y17	Z17	X18	Y18	Z18	X19	Y19	Z19	X20	Y20	Z20	X21	Y21	Z21	X22	Y22	Z22	X23	Y23	Z23	X24	Y24	Z24	X25	Y25	Z25	X26	Y26	Z26	X27	Y27	Z27	X28	Y28	Z28	X29	Y29	Z29	X30	Y30	Z30	X31	Y31	Z31	X32	Y32	Z32	X33	Y33	Z33	X34	Y34	Z34	X35	Y35	Z35	X36	Y36	Z36	X37	Y37	Z37	X38	Y38	Z38	X39	Y39	Z39	X40	Y40	Z40	X41	Y41	Z41	X42	Y42	Z42	X43	Y43	Z43	X44	Y44	Z44	

56	0.550	-1113.14307	-55.01324	1659.20435	-982.19794	-63.50890	1646.84021	-1123.55371	-186.03757	1603.43542	-994.84613	-193.34404	1595.49792	-1066.59265	-189.78270	1446.79871	-1049.24219	-232.91510	1119.05579	-1058.78406	-81.83533	1366.73096	-1059.60913	-45.81659	1190.97095	-986.35938	-270.74536	1279.54724	-1223.80151	-129.67847	1396.49011	-1297.29297	-153.72882	1196.59253	-1311.46301	-177.44736	1086.79309	-1339.09265	-177.00354	938.20813	-1301.23877	-139.16148	812.92944	-1341.38806	-198.25777	821.01630	-1345.59692	-173.49965	733.77136	-900.37384	-135.79843	1404.36035	-811.49500	-193.57057	1212.66003	-798.19391	-190.46472	1090.51257	-783.29449	-158.68610	975.10089	-818.40906	-71.90551	854.25891	-781.44861	-126.81010	842.12134	-780.51184	-75.55113	776.17487	-1153.77356	-54.84643	962.09814	-935.38599	-65.30771	957.35260	-1132.85547	-213.96288	987.46423	-965.38171	-214.51520	979.63354	-1213.62427	-85.58619	648.50140	-1182.49512	-57.33526	489.04071	-1169.35840	-96.22025	233.39331	-1122.19714	-108.02934	64.13788	-1075.17212	-148.71353	51.54242	-1122.83630	34.16482	36.45492	-881.85510	-67.38266	621.33826	-896.46271	-27.72803	501.43164	-909.95538	-200.31636	320.15860	-958.42303	-344.15414	206.29141	-1004.22766	-385.69574	222.19693	-966.87238	-282.63785	62.56385	-1060.65503	-159.18372	1695.52429												 
57	0.560	-1112.54480	-40.56449	1661.00684	-981.65179	-49.08076	1648.30908	-1123.22571	-171.71133	1605.55444	-994.57324	-179.20700	1597.33252	-1066.78638	-175.55920	1448.38770	-1050.48157	-219.16997	1121.10034	-1058.99268	-68.00478	1368.52039	-1060.21301	-32.25628	1192.78235	-987.12390	-256.94305	1281.65112	-1223.86804	-115.47536	1398.84521	-1297.56165	-136.05435	1198.60950	-1312.18298	-156.64360	1088.13269	-1339.45850	-151.88763	939.58783	-1300.83716	-111.06310	815.47162	-1341.81006	-169.85014	821.94916	-1345.83093	-142.20532	735.64221	-900.66614	-122.13293	1405.96350	-812.50317	-180.70322	1214.25647	-799.66022	-178.82802	1092.03284	-784.32007	-150.63000	975.56445	-818.29797	-68.37597	851.11511	-781.54089	-124.35113	841.23401	-780.49774	-75.37432	773.10162	-1154.97485	-41.70369	963.51062	-936.35687	-51.24797	960.24060	-1133.45764	-200.42953	989.11133	-966.24109	-200.26282	981.97247	-1213.53528	-76.37601	648.84662	-1182.49744	-51.74722	488.64713	-1169.50256	-93.55828	233.32834	-1121.95190	-107.63187	64.24287	-1075.15601	-148.70021	51.65656	-1122.63184	34.26117	36.36959	-882.39807	-47.08952	626.04535	-897.69476	-4.25619	507.02509	-910.34985	-171.21826	319.25894	-958.27972	-310.07977	198.66870	-1004.46509	-352.95755	210.94342	-963.03955	-237.63226	61.18295	-1060.12512	-144.71030	1697.39819												 
58	0.570	-1111.90063	-26.07904	1662.31580	-981.00787	-34.77127	1649.39465	-1122.90576	-157.43602	1607.51392	-994.28247	-165.05458	1598.86780	-1067.01843	-161.76024	1449.92249	-1051.48962	-205.54556	1122.93555	-1059.17432	-54.23487	1370.10071	-1060.86768	-18.61079	1194.36279	-987.78442	-243.17522	1283.47375	-1223.93384	-101.23768	1401.04102	-1298.02600	-118.55486	1200.67883	-1312.81323	-136.26009	1089.69141	-1339.74231	-126.70872	941.10883	-1300.36646	-82.56864	818.35315	-1342.04761	-140.98849	822.95776	-1345.76086	-110.49524	737.76843	-901.02478	-108.46005	1407.36816	-813.44684	-167.89163	1215.74939	-801.11017	-167.41570	1093.43567	-785.23846	-142.78879	976.06879	-818.21143	-64.95122	848.13892	-781.88806	-121.24293	840.48328	-780.47382	-75.33764	770.35645	-1156.27917	-28.59371	964.71564	-937.35065	-37.27618	962.88757	-1133.96045	-186.83093	990.53314	-966.67041	-186.41142	984.28632	-1213.26453	-67.13889	649.06335	-1182.59705	-46.35530	488.15622	-1169.55164	-90.87074	233.23410	-1121.82874	-107.42594	64.43669	-1075.17773	-148.65399	51.90595	-1122.49866	34.47809	36.17752	-882.85913	-27.13612	630.58344	-899.04913	18.47719	512.42236	-910.80536	-142.30067	317.82605	-958.09198	-275.02979	190.04298	-1004.65771	-318.97458	198.45604	-959.86066	-191.96075	59.88517	-1059.39929	-130.12111	1699.01038												 
59	0.580	-1111.09790	-11.61005	1663.44348	-980.29730	-20.69541	1650.03674	-1122.50598	-143.18109	1609.28601	-993.91046	-150.97594	1600.15417	-1067.16565	-147.91316	1451.15332	-1052.43408	-191.98927	1124.63916	-1059.40491	-40.48935	1371.36499	-1061.57971	-5.01440	1195.69531	-988.43024	-229.46068	1285.01501	-1223.93201	-87.06487	1402.98450	-1298.35413	-101.33424	1202.41577	-1313.55457	-116.15056	1091.08435	-1340.05884	-101.60040	942.73322	-1299.70581	-53.96524	821.54071	-1342.05115	-111.85284	824.19879	-1345.33630	-78.30241	740.13959	-901.36511	-94.80927	1408.44580	-814.18823	-155.21100	1217.01428	-802.37659	-156.14864	1094.56750	-786.11926	-135.08203	976.43622	-817.43201	-61.01529	845.69012	-781.87567	-118.26493	840.01331	-780.44159	-75.24007	767.86621	-1157.61975	-15.35308	965.59619	-938.54657	-22.85253	965.28278	-1134.35864	-173.36031	991.77362	-967.22729	-172.04723	986.16956	-1213.27344	-58.15803	649.08850	-1182.84009	-41.31109	487.56357	-1169.46338	-88.45404	233.14082	-1121.68884	-107.12405	64.58031	-1075.18799	-148.58548	52.07600	-1122.67322	34.76266	36.06836	-883.23682	-7.49745	634.53894	-900.37860	40.28156	517.45374	-911.10968	-113.25118	315.48566	-957.75940	-238.89990	180.73260	-1004.63800	-283.64133	185.24477	-956.87964	-146.56451	57.92473	-1058.58569	-115.57500	1700.41113												 
